<?xml version="1.0" encoding="utf-8"?>
<!-- Generator: Adobe Illustrator 21.0.0, SVG Export Plug-In . SVG Version: 6.00 Build 0)  -->
<svg version="1.1" id="Layer_1" xmlns="http://www.w3.org/2000/svg" xmlns:xlink="http://www.w3.org/1999/xlink" x="0px" y="0px"
	 viewBox="0 0 74 94.8" style="enable-background:new 0 0 74 94.8;" xml:space="preserve">
<style type="text/css">
	.st0{opacity:0.45;clip-path:url(#SVGID_2_);}
	.st1{fill:none;stroke:#FFFFFF;stroke-width:0.4724;stroke-miterlimit:10;}
	.st2{opacity:0.45;clip-path:url(#SVGID_4_);}
	.st3{opacity:0.45;clip-path:url(#SVGID_6_);}
	.st4{fill:none;stroke:#FFFFFF;stroke-miterlimit:10;}
	.st5{enable-background:new    ;}
	.st6{fill:#FFFFFF;}
</style>
<g>
	<g>
		<g>
			<defs>
				<path id="SVGID_1_" d="M28.5,59.2C26.8,47.3,13,50.9,6.9,43.4c-3.1-3.9-2.7-14.5-1.5-19.3C10.1,5.5,28.5,0.8,46,3.6
					c17.9,2.9,32,14.8,19.1,32.1c-5.3,7.1-11,8.2-18.8,9.8C36.5,47.4,35.2,50.9,28.5,59.2z"/>
			</defs>
			<clipPath id="SVGID_2_">
				<use xlink:href="#SVGID_1_"  style="overflow:visible;"/>
			</clipPath>
			<g class="st0">
				<line class="st1" x1="17.3" y1="1.1" x2="95.3" y2="1.2"/>
				<line class="st1" x1="14.5" y1="3.4" x2="47.8" y2="3.4"/>
				<line class="st1" x1="50.8" y1="3.5" x2="84.1" y2="3.5"/>
				<line class="st1" x1="87.1" y1="3.5" x2="92.1" y2="3.5"/>
				<line class="st1" x1="89.9" y1="5.3" x2="56.5" y2="5.3"/>
				<line class="st1" x1="53.8" y1="5.3" x2="20.4" y2="5.2"/>
				<line class="st1" x1="17.4" y1="5.2" x2="12.4" y2="5.2"/>
				<line class="st1" x1="10.1" y1="7" x2="88.2" y2="7.1"/>
				<line class="st1" x1="7.4" y1="9.3" x2="40.8" y2="9.3"/>
				<line class="st1" x1="43.5" y1="9.3" x2="76.8" y2="9.4"/>
				<line class="st1" x1="63.3" y1="21.3" x2="38" y2="21.3"/>
				<line class="st1" x1="46.7" y1="11.2" x2="13.3" y2="11.1"/>
				<line class="st1" x1="10.3" y1="11.1" x2="5.3" y2="11.1"/>
				<line class="st1" x1="2.4" y1="13.4" x2="74.3" y2="13.5"/>
				<line class="st1" x1="-0.3" y1="15.6" x2="33" y2="15.7"/>
				<line class="st1" x1="39" y1="17.5" x2="5.6" y2="17.5"/>
				<line class="st1" x1="2.6" y1="17.5" x2="-2.4" y2="17.5"/>
				<line class="st1" x1="78.6" y1="11.1" x2="56.8" y2="11.1"/>
				<line class="st1" x1="62.8" y1="17.5" x2="52.5" y2="17.5"/>
				<line class="st1" x1="-4.7" y1="19.3" x2="73.3" y2="19.4"/>
				<line class="st1" x1="-7.3" y1="21.5" x2="26" y2="21.6"/>
				<line class="st1" x1="31.8" y1="23.4" x2="-1.6" y2="23.4"/>
				<line class="st1" x1="66.3" y1="23.4" x2="45.8" y2="23.4"/>
				<line class="st1" x1="-4.7" y1="23.3" x2="-9.6" y2="23.3"/>
				<line class="st1" x1="50.3" y1="17.5" x2="45.3" y2="17.5"/>
				<line class="st1" x1="43" y1="23.3" x2="38" y2="23.3"/>
			</g>
		</g>
	</g>
	<g>
		<g>
			<defs>
				<path id="SVGID_3_" d="M28.5,59.2C26.8,47.3,13,50.9,6.9,43.4c-3.1-3.9-2.7-14.5-1.5-19.3C10.1,5.5,28.5,0.8,46,3.6
					c17.9,2.9,32,14.8,19.1,32.1c-5.3,7.1-11,8.2-18.8,9.8C36.5,47.4,35.2,50.9,28.5,59.2z"/>
			</defs>
			<clipPath id="SVGID_4_">
				<use xlink:href="#SVGID_3_"  style="overflow:visible;"/>
			</clipPath>
			<g class="st2">
				<line class="st1" x1="4.4" y1="25.6" x2="82.4" y2="25.7"/>
				<line class="st1" x1="1.6" y1="27.9" x2="35" y2="27.9"/>
				<line class="st1" x1="38" y1="28" x2="71.3" y2="28"/>
				<line class="st1" x1="74.3" y1="28" x2="79.3" y2="28"/>
				<line class="st1" x1="77.1" y1="29.8" x2="43.8" y2="29.8"/>
				<line class="st1" x1="41" y1="29.8" x2="7.6" y2="29.7"/>
				<line class="st1" x1="4.6" y1="29.7" x2="-0.4" y2="29.7"/>
				<line class="st1" x1="-2.8" y1="31.5" x2="75.3" y2="31.6"/>
				<line class="st1" x1="-5.3" y1="33.8" x2="28" y2="33.8"/>
				<line class="st1" x1="30.8" y1="33.8" x2="64.1" y2="33.9"/>
				<line class="st1" x1="50.5" y1="45.8" x2="25.3" y2="45.8"/>
				<line class="st1" x1="33.8" y1="35.7" x2="0.4" y2="35.6"/>
				<line class="st1" x1="-2.7" y1="35.6" x2="-7.7" y2="35.6"/>
				<line class="st1" x1="-10.4" y1="37.9" x2="61.4" y2="38"/>
				<line class="st1" x1="-13.1" y1="40.1" x2="20.3" y2="40.2"/>
				<line class="st1" x1="26.2" y1="42" x2="-7.3" y2="42"/>
				<line class="st1" x1="-10.4" y1="42" x2="-15.4" y2="42"/>
				<line class="st1" x1="65.7" y1="35.6" x2="43.8" y2="35.6"/>
				<line class="st1" x1="50" y1="42" x2="39.7" y2="42"/>
				<line class="st1" x1="-17.5" y1="43.8" x2="60.4" y2="43.9"/>
				<line class="st1" x1="-20.3" y1="46" x2="13" y2="46.1"/>
				<line class="st1" x1="19" y1="47.9" x2="-14.4" y2="47.9"/>
				<line class="st1" x1="53.5" y1="47.9" x2="33" y2="47.9"/>
				<line class="st1" x1="-17.5" y1="47.8" x2="-22.5" y2="47.8"/>
				<line class="st1" x1="37.3" y1="42" x2="32.3" y2="42"/>
				<line class="st1" x1="30.3" y1="47.8" x2="25.3" y2="47.8"/>
			</g>
		</g>
	</g>
	<g>
		<g>
			<defs>
				<path id="SVGID_5_" d="M28.5,59.2C26.8,47.3,13,50.9,6.9,43.4c-3.1-3.9-2.7-14.5-1.5-19.3C10.1,5.5,28.5,0.8,46,3.6
					c17.9,2.9,32,14.8,19.1,32.1c-5.3,7.1-11,8.2-18.8,9.8C36.5,47.4,35.2,50.9,28.5,59.2z"/>
			</defs>
			<clipPath id="SVGID_6_">
				<use xlink:href="#SVGID_5_"  style="overflow:visible;"/>
			</clipPath>
			<g class="st3">
				<line class="st1" x1="-6.3" y1="49.9" x2="71.8" y2="50"/>
				<line class="st1" x1="-8.9" y1="52.2" x2="24.5" y2="52.2"/>
				<line class="st1" x1="27.3" y1="52.3" x2="60.6" y2="52.3"/>
				<line class="st1" x1="63.7" y1="52.3" x2="68.7" y2="52.3"/>
				<line class="st1" x1="66.4" y1="54.1" x2="33" y2="54.1"/>
				<line class="st1" x1="30.3" y1="54.1" x2="-3.1" y2="54"/>
				<line class="st1" x1="-6.2" y1="54" x2="-11.1" y2="54"/>
				<line class="st1" x1="-13.4" y1="55.8" x2="64.7" y2="55.9"/>
				<line class="st1" x1="-16" y1="58.1" x2="17.3" y2="58.1"/>
				<line class="st1" x1="20.1" y1="58.1" x2="53.5" y2="58.2"/>
				<line class="st1" x1="39.8" y1="70.1" x2="14.5" y2="70.1"/>
				<line class="st1" x1="23.1" y1="60" x2="-10.3" y2="59.9"/>
				<line class="st1" x1="-13.3" y1="59.9" x2="-18.3" y2="59.9"/>
				<line class="st1" x1="-21" y1="62.2" x2="50.8" y2="62.3"/>
				<line class="st1" x1="-23.8" y1="64.4" x2="9.5" y2="64.5"/>
				<line class="st1" x1="15.5" y1="66.3" x2="-18" y2="66.3"/>
				<line class="st1" x1="-21" y1="66.3" x2="-26" y2="66.3"/>
				<line class="st1" x1="55" y1="59.9" x2="33.3" y2="59.9"/>
				<line class="st1" x1="39.3" y1="66.3" x2="29" y2="66.3"/>
				<line class="st1" x1="-28.1" y1="68.1" x2="49.8" y2="68.2"/>
				<line class="st1" x1="-30.9" y1="70.3" x2="2.4" y2="70.4"/>
				<line class="st1" x1="8.4" y1="72.2" x2="-25" y2="72.2"/>
				<line class="st1" x1="42.8" y1="72.2" x2="22.3" y2="72.2"/>
				<line class="st1" x1="-28" y1="72.1" x2="-33" y2="72.1"/>
				<line class="st1" x1="26.8" y1="66.3" x2="21.8" y2="66.3"/>
				<line class="st1" x1="19.5" y1="72.1" x2="14.5" y2="72.1"/>
			</g>
		</g>
	</g>
	<g>
		<path id="XMLID_1_" class="st4" d="M28.5,59.2C26.8,47.3,13,50.9,6.9,43.4c-3.1-3.9-2.7-14.5-1.5-19.3C10.1,5.5,28.5,0.8,46,3.6
			c17.9,2.9,32,14.8,19.1,32.1c-5.3,7.1-11,8.2-18.8,9.8C36.5,47.4,35.2,50.9,28.5,59.2z"/>
	</g>
</g>
<g class="st5">
	<path class="st6" d="M10.3,82c-0.8-0.4-1.3-1-1.8-1.7c-0.4-0.7-0.6-1.5-0.6-2.4s0.2-1.7,0.6-2.4c0.4-0.7,1-1.3,1.8-1.7
		s1.6-0.6,2.5-0.6c0.8,0,1.5,0.1,2.2,0.4c0.6,0.3,1.2,0.7,1.6,1.2l-1.4,1.3c-0.6-0.7-1.4-1.1-2.3-1.1c-0.6,0-1.1,0.1-1.5,0.4
		c-0.4,0.2-0.8,0.6-1,1c-0.2,0.4-0.4,1-0.4,1.5c0,0.6,0.1,1.1,0.4,1.5c0.2,0.4,0.6,0.8,1,1c0.4,0.2,1,0.4,1.5,0.4
		c0.9,0,1.7-0.4,2.3-1.1l1.4,1.3c-0.4,0.5-1,0.9-1.6,1.2c-0.6,0.3-1.4,0.4-2.2,0.4C11.9,82.7,11,82.5,10.3,82z"/>
	<path class="st6" d="M19.7,82c-0.8-0.4-1.4-1-1.8-1.7c-0.4-0.7-0.6-1.5-0.6-2.4s0.2-1.7,0.6-2.4c0.4-0.7,1-1.3,1.8-1.7
		c0.8-0.4,1.6-0.6,2.6-0.6s1.8,0.2,2.6,0.6c0.8,0.4,1.4,1,1.8,1.7c0.4,0.7,0.7,1.5,0.7,2.4s-0.2,1.7-0.7,2.4c-0.4,0.7-1,1.3-1.8,1.7
		c-0.8,0.4-1.6,0.6-2.6,0.6S20.5,82.5,19.7,82z M23.7,80.5c0.4-0.2,0.8-0.6,1-1c0.2-0.4,0.4-1,0.4-1.5c0-0.6-0.1-1.1-0.4-1.5
		c-0.2-0.4-0.6-0.8-1-1c-0.4-0.2-0.9-0.4-1.5-0.4s-1,0.1-1.5,0.4c-0.4,0.2-0.8,0.6-1,1c-0.2,0.4-0.4,1-0.4,1.5
		c0,0.6,0.1,1.1,0.4,1.5c0.2,0.4,0.6,0.8,1,1c0.4,0.2,0.9,0.4,1.5,0.4S23.3,80.7,23.7,80.5z"/>
	<path class="st6" d="M34.7,82.5L33,79.9h-0.1H31v2.6h-2.1v-9.2h4c0.8,0,1.5,0.1,2.1,0.4c0.6,0.3,1.1,0.7,1.4,1.2
		c0.3,0.5,0.5,1.1,0.5,1.8s-0.2,1.3-0.5,1.8c-0.3,0.5-0.8,0.9-1.4,1.1l2.1,2.9H34.7z M34.2,75.5c-0.3-0.3-0.8-0.4-1.5-0.4H31v3.2
		h1.7c0.6,0,1.1-0.1,1.5-0.4c0.3-0.3,0.5-0.7,0.5-1.2C34.7,76.1,34.5,75.7,34.2,75.5z"/>
	<path class="st6" d="M40.3,75.1h-2.9v-1.7h8v1.7h-2.9v7.4h-2.1V75.1z"/>
	<path class="st6" d="M53.6,80.8v1.7h-7.1v-9.2h6.9V75h-4.8v2h4.3v1.7h-4.3v2.1H53.6z"/>
	<path class="st6" d="M61,82.5l-2.2-3.2l-2.2,3.2h-2.4l3.4-4.7l-3.2-4.5h2.4l2.1,3l2.1-3h2.3L60,77.8l3.4,4.7H61z"/>
</g>
<g class="st5">
	<path class="st6" d="M9.2,91.2c-0.4-0.3-0.8-0.6-1.1-1s-0.4-0.9-0.4-1.5c0-0.5,0.1-1,0.4-1.5s0.6-0.8,1.1-1c0.4-0.3,1-0.4,1.5-0.4
		c0.4,0,0.8,0.1,1.1,0.2c0.3,0.1,0.6,0.3,0.9,0.6l-0.3,0.3c-0.5-0.5-1-0.7-1.8-0.7c-0.5,0-0.9,0.1-1.3,0.3c-0.4,0.2-0.7,0.5-0.9,0.9
		c-0.2,0.4-0.3,0.8-0.3,1.3c0,0.5,0.1,0.9,0.3,1.3c0.2,0.4,0.5,0.7,0.9,0.9c0.4,0.2,0.8,0.3,1.3,0.3c0.7,0,1.3-0.2,1.8-0.7l0.3,0.3
		c-0.2,0.3-0.5,0.5-0.9,0.6c-0.4,0.1-0.7,0.2-1.1,0.2C10.2,91.6,9.7,91.4,9.2,91.2z"/>
	<path class="st6" d="M15,91.2c-0.5-0.3-0.8-0.6-1.1-1s-0.4-0.9-0.4-1.5s0.1-1,0.4-1.5s0.6-0.8,1.1-1c0.5-0.3,1-0.4,1.5-0.4
		c0.6,0,1.1,0.1,1.5,0.4c0.5,0.3,0.8,0.6,1.1,1s0.4,0.9,0.4,1.5c0,0.6-0.1,1-0.4,1.5s-0.6,0.8-1.1,1c-0.5,0.3-1,0.4-1.5,0.4
		C15.9,91.6,15.4,91.4,15,91.2z M17.8,90.8c0.4-0.2,0.7-0.5,0.9-0.9c0.2-0.4,0.3-0.8,0.3-1.3c0-0.5-0.1-0.9-0.3-1.3
		c-0.2-0.4-0.5-0.7-0.9-0.9c-0.4-0.2-0.8-0.3-1.3-0.3c-0.5,0-0.9,0.1-1.3,0.3s-0.7,0.5-0.9,0.9c-0.2,0.4-0.3,0.8-0.3,1.3
		c0,0.5,0.1,0.9,0.3,1.3c0.2,0.4,0.5,0.7,0.9,0.9c0.4,0.2,0.8,0.3,1.3,0.3C17,91.2,17.4,91.1,17.8,90.8z"/>
	<path class="st6" d="M24.7,86.3c0.4,0.3,0.6,0.8,0.6,1.4c0,0.6-0.2,1.1-0.6,1.4s-1,0.5-1.7,0.5h-1.6v1.9h-0.4v-5.7H23
		C23.7,85.8,24.2,86,24.7,86.3z M24.4,88.9c0.3-0.3,0.5-0.6,0.5-1.1s-0.2-0.9-0.5-1.1c-0.3-0.3-0.8-0.4-1.4-0.4h-1.6v3.1H23
		C23.6,89.3,24,89.1,24.4,88.9z"/>
	<path class="st6" d="M28.4,89.5v2H28v-2l-2.3-3.8h0.5l2.1,3.4l2.1-3.4h0.4L28.4,89.5z"/>
	<path class="st6" d="M39.3,85.8l-1.9,5.7h-0.4l-1.8-5.1l-1.8,5.1h-0.4L31,85.8h0.4l1.7,5.2l1.8-5.2h0.4l1.8,5.2l1.8-5.2H39.3z"/>
	<path class="st6" d="M44.5,91.5l-1.4-1.9c-0.2,0-0.4,0-0.6,0h-1.6v1.9h-0.4v-5.7h2.1c0.7,0,1.3,0.2,1.7,0.5
		c0.4,0.3,0.6,0.8,0.6,1.4c0,0.5-0.1,0.8-0.3,1.1c-0.2,0.3-0.6,0.5-1,0.6l1.4,2H44.5z M42.5,89.3c0.6,0,1.1-0.1,1.4-0.4
		c0.3-0.3,0.5-0.7,0.5-1.1s-0.2-0.9-0.5-1.1c-0.3-0.3-0.8-0.4-1.4-0.4h-1.6v3.1H42.5z"/>
	<path class="st6" d="M46.4,85.8h0.4v5.7h-0.4V85.8z"/>
	<path class="st6" d="M49.9,86.2h-2.1v-0.4h4.5v0.4h-2.1v5.3h-0.4V86.2z"/>
	<path class="st6" d="M57.3,91.1v0.4h-3.9v-5.7h3.8v0.4h-3.4v2.3h3v0.4h-3v2.3H57.3z"/>
	<path class="st6" d="M62.8,91.5l-1.4-1.9c-0.2,0-0.4,0-0.6,0h-1.6v1.9h-0.4v-5.7h2.1c0.7,0,1.3,0.2,1.7,0.5
		c0.4,0.3,0.6,0.8,0.6,1.4c0,0.5-0.1,0.8-0.3,1.1c-0.2,0.3-0.6,0.5-1,0.6l1.4,2H62.8z M60.9,89.3c0.6,0,1.1-0.1,1.4-0.4
		c0.3-0.3,0.5-0.7,0.5-1.1s-0.2-0.9-0.5-1.1c-0.3-0.3-0.8-0.4-1.4-0.4h-1.6v3.1H60.9z"/>
</g>
</svg>
